# xmcd CD database file
#
# Track frame offsets:
#	150
#	15422
#	32139
#	44299
#	55384
#	71642
#	85333
#
# Disc length: 1294 seconds
#
# Revision: 1
# Processed by: cddbd v1.5.1PL0 Copyright (c) Steve Scherf et al.
# Submitted via: CDex 1.51
#
DISCID=56050c07
DTITLE=Matt Dusk - Peace On Earth
DYEAR=2004
DGENRE=Jazz
TTITLE0=Christmas Is Finally Here
TTITLE1=Have Yourself A Merry Little Christmas
TTITLE2=Peace On Earth/Little Drummer Boy (Featuring Hawksley Workman)
TTITLE3=Cool Yule
TTITLE4=Silent Night
TTITLE5=Christmas Blues
TTITLE6=It's A Marshmallow World (Roasted Remix)
EXTD=YEAR: 2004
EXTT0=
EXTT1=
EXTT2=
EXTT3=
EXTT4=
EXTT5=
EXTT6=
PLAYORDER=
